<mxfile host="Electron" agent="Mozilla/5.0 (Windows NT 10.0; Win64; x64) AppleWebKit/537.36 (KHTML, like Gecko) draw.io/27.0.9 Chrome/134.0.6998.205 Electron/35.4.0 Safari/537.36" version="27.0.9">
  <diagram name="PÃ¡gina-1" id="v7uTeOr8I_lq8m4iilkw">
    <mxGraphModel dx="2135" dy="1971" grid="1" gridSize="10" guides="1" tooltips="1" connect="1" arrows="1" fold="1" page="1" pageScale="1" pageWidth="827" pageHeight="1169" math="0" shadow="0">
      <root>
        <mxCell id="0" />
        <mxCell id="1" parent="0" />
        <mxCell id="aoiIvWKllZCUMls8HDCo-1" value="01" style="rounded=0;whiteSpace=wrap;html=1;" parent="1" vertex="1">
          <mxGeometry x="70" y="60" width="60" height="460" as="geometry" />
        </mxCell>
        <mxCell id="aoiIvWKllZCUMls8HDCo-3" value="02" style="rounded=0;whiteSpace=wrap;html=1;" parent="1" vertex="1">
          <mxGeometry x="300" y="70" width="50" height="460" as="geometry" />
        </mxCell>
        <mxCell id="aoiIvWKllZCUMls8HDCo-5" style="edgeStyle=orthogonalEdgeStyle;rounded=0;orthogonalLoop=1;jettySize=auto;html=1;entryX=0.5;entryY=0;entryDx=0;entryDy=0;" parent="1" source="aoiIvWKllZCUMls8HDCo-4" target="aoiIvWKllZCUMls8HDCo-1" edge="1">
          <mxGeometry relative="1" as="geometry" />
        </mxCell>
        <mxCell id="aoiIvWKllZCUMls8HDCo-4" value="GOHAN&lt;br&gt;KRILIN&lt;div&gt;BULMA&lt;/div&gt;" style="rounded=0;whiteSpace=wrap;html=1;" parent="1" vertex="1">
          <mxGeometry x="40" y="-60" width="120" height="60" as="geometry" />
        </mxCell>
        <mxCell id="aoiIvWKllZCUMls8HDCo-7" style="edgeStyle=orthogonalEdgeStyle;rounded=0;orthogonalLoop=1;jettySize=auto;html=1;" parent="1" source="aoiIvWKllZCUMls8HDCo-6" target="aoiIvWKllZCUMls8HDCo-3" edge="1">
          <mxGeometry relative="1" as="geometry" />
        </mxCell>
        <mxCell id="aoiIvWKllZCUMls8HDCo-6" value="GOHAN&lt;br&gt;KRILIN&lt;div&gt;BULMA&lt;/div&gt;" style="rounded=0;whiteSpace=wrap;html=1;" parent="1" vertex="1">
          <mxGeometry x="294" y="-60" width="120" height="60" as="geometry" />
        </mxCell>
        <mxCell id="aoiIvWKllZCUMls8HDCo-13" style="edgeStyle=orthogonalEdgeStyle;rounded=0;orthogonalLoop=1;jettySize=auto;html=1;entryX=0;entryY=0.5;entryDx=0;entryDy=0;" parent="1" source="aoiIvWKllZCUMls8HDCo-11" target="aoiIvWKllZCUMls8HDCo-3" edge="1">
          <mxGeometry relative="1" as="geometry" />
        </mxCell>
        <mxCell id="aoiIvWKllZCUMls8HDCo-11" value="" style="ellipse;whiteSpace=wrap;html=1;aspect=fixed;" parent="1" vertex="1">
          <mxGeometry x="180" y="230" width="80" height="80" as="geometry" />
        </mxCell>
        <mxCell id="aoiIvWKllZCUMls8HDCo-14" style="edgeStyle=orthogonalEdgeStyle;rounded=0;orthogonalLoop=1;jettySize=auto;html=1;entryX=1;entryY=0.457;entryDx=0;entryDy=0;entryPerimeter=0;" parent="1" source="aoiIvWKllZCUMls8HDCo-11" target="aoiIvWKllZCUMls8HDCo-1" edge="1">
          <mxGeometry relative="1" as="geometry" />
        </mxCell>
        <mxCell id="aoiIvWKllZCUMls8HDCo-18" value="ALTAR&lt;br&gt;(HOGUERA)" style="ellipse;shape=cloud;whiteSpace=wrap;html=1;" parent="1" vertex="1">
          <mxGeometry x="354" y="210" width="120" height="80" as="geometry" />
        </mxCell>
        <mxCell id="aoiIvWKllZCUMls8HDCo-20" value="03" style="rounded=0;whiteSpace=wrap;html=1;" parent="1" vertex="1">
          <mxGeometry x="480" y="30" width="50" height="460" as="geometry" />
        </mxCell>
        <mxCell id="aoiIvWKllZCUMls8HDCo-23" value="GOHAN&lt;br&gt;KRILIN&lt;div&gt;BULMA&lt;/div&gt;" style="rounded=0;whiteSpace=wrap;html=1;" parent="1" vertex="1">
          <mxGeometry x="460" y="-60" width="120" height="60" as="geometry" />
        </mxCell>
        <mxCell id="jvADGa9I1Nxa1BJmUf2R-1" value="" style="edgeStyle=orthogonalEdgeStyle;rounded=0;orthogonalLoop=1;jettySize=auto;html=1;" parent="1" source="aoiIvWKllZCUMls8HDCo-24" target="aoiIvWKllZCUMls8HDCo-92" edge="1">
          <mxGeometry relative="1" as="geometry" />
        </mxCell>
        <mxCell id="jvADGa9I1Nxa1BJmUf2R-2" value="" style="edgeStyle=orthogonalEdgeStyle;rounded=0;orthogonalLoop=1;jettySize=auto;html=1;" parent="1" source="aoiIvWKllZCUMls8HDCo-24" target="aoiIvWKllZCUMls8HDCo-20" edge="1">
          <mxGeometry relative="1" as="geometry" />
        </mxCell>
        <mxCell id="aoiIvWKllZCUMls8HDCo-24" value="" style="ellipse;whiteSpace=wrap;html=1;aspect=fixed;" parent="1" vertex="1">
          <mxGeometry x="570" y="235" width="50" height="50" as="geometry" />
        </mxCell>
        <mxCell id="aoiIvWKllZCUMls8HDCo-27" value="05" style="rounded=0;whiteSpace=wrap;html=1;" parent="1" vertex="1">
          <mxGeometry x="730" y="47.5" width="50" height="460" as="geometry" />
        </mxCell>
        <mxCell id="aoiIvWKllZCUMls8HDCo-31" value="Actor" style="shape=umlActor;verticalLabelPosition=bottom;verticalAlign=top;html=1;outlineConnect=0;" parent="1" vertex="1">
          <mxGeometry x="180" y="-70" width="30" height="60" as="geometry" />
        </mxCell>
        <mxCell id="aoiIvWKllZCUMls8HDCo-37" style="edgeStyle=orthogonalEdgeStyle;rounded=0;orthogonalLoop=1;jettySize=auto;html=1;" parent="1" source="aoiIvWKllZCUMls8HDCo-36" target="aoiIvWKllZCUMls8HDCo-27" edge="1">
          <mxGeometry relative="1" as="geometry" />
        </mxCell>
        <mxCell id="aoiIvWKllZCUMls8HDCo-36" value="" style="ellipse;whiteSpace=wrap;html=1;aspect=fixed;" parent="1" vertex="1">
          <mxGeometry x="810" y="200" width="80" height="80" as="geometry" />
        </mxCell>
        <mxCell id="aoiIvWKllZCUMls8HDCo-38" value="SOLDAODS&lt;div&gt;BASICOS&lt;/div&gt;" style="text;html=1;align=center;verticalAlign=middle;whiteSpace=wrap;rounded=0;" parent="1" vertex="1">
          <mxGeometry x="190" y="190" width="60" height="30" as="geometry" />
        </mxCell>
        <mxCell id="aoiIvWKllZCUMls8HDCo-39" value="SOLDAODS&lt;div&gt;BASICOS&lt;/div&gt;" style="text;html=1;align=center;verticalAlign=middle;whiteSpace=wrap;rounded=0;" parent="1" vertex="1">
          <mxGeometry x="820" y="160" width="60" height="30" as="geometry" />
        </mxCell>
        <mxCell id="aoiIvWKllZCUMls8HDCo-41" value="06" style="rounded=0;whiteSpace=wrap;html=1;" parent="1" vertex="1">
          <mxGeometry x="920" y="50" width="50" height="460" as="geometry" />
        </mxCell>
        <mxCell id="aoiIvWKllZCUMls8HDCo-42" value="ALTAR&lt;br&gt;(HOGUERA)" style="ellipse;shape=cloud;whiteSpace=wrap;html=1;" parent="1" vertex="1">
          <mxGeometry x="970" y="230" width="120" height="80" as="geometry" />
        </mxCell>
        <mxCell id="aoiIvWKllZCUMls8HDCo-43" value="07" style="rounded=0;whiteSpace=wrap;html=1;" parent="1" vertex="1">
          <mxGeometry x="1090" y="50" width="50" height="460" as="geometry" />
        </mxCell>
        <mxCell id="aoiIvWKllZCUMls8HDCo-47" style="edgeStyle=orthogonalEdgeStyle;rounded=0;orthogonalLoop=1;jettySize=auto;html=1;" parent="1" target="aoiIvWKllZCUMls8HDCo-43" edge="1">
          <mxGeometry relative="1" as="geometry">
            <mxPoint x="1181" y="260" as="sourcePoint" />
          </mxGeometry>
        </mxCell>
        <mxCell id="aoiIvWKllZCUMls8HDCo-101" style="edgeStyle=orthogonalEdgeStyle;rounded=0;orthogonalLoop=1;jettySize=auto;html=1;exitX=0.5;exitY=1;exitDx=0;exitDy=0;" parent="1" source="aoiIvWKllZCUMls8HDCo-109" target="aoiIvWKllZCUMls8HDCo-105" edge="1">
          <mxGeometry relative="1" as="geometry">
            <mxPoint x="1241" y="300.39999999999964" as="sourcePoint" />
            <mxPoint x="1290" y="390" as="targetPoint" />
            <Array as="points">
              <mxPoint x="1266" y="300" />
              <mxPoint x="1266" y="390" />
            </Array>
          </mxGeometry>
        </mxCell>
        <mxCell id="aoiIvWKllZCUMls8HDCo-102" style="edgeStyle=orthogonalEdgeStyle;rounded=0;orthogonalLoop=1;jettySize=auto;html=1;entryX=0;entryY=0.5;entryDx=0;entryDy=0;exitX=0.5;exitY=0;exitDx=0;exitDy=0;" parent="1" source="aoiIvWKllZCUMls8HDCo-109" target="aoiIvWKllZCUMls8HDCo-98" edge="1">
          <mxGeometry relative="1" as="geometry">
            <mxPoint x="1230" y="139.99999999999977" as="targetPoint" />
            <mxPoint x="1239.56" y="220.39999999999986" as="sourcePoint" />
            <Array as="points">
              <mxPoint x="1296" y="220" />
              <mxPoint x="1296" y="120" />
            </Array>
          </mxGeometry>
        </mxCell>
        <mxCell id="aoiIvWKllZCUMls8HDCo-48" value="10" style="rounded=0;whiteSpace=wrap;html=1;" parent="1" vertex="1">
          <mxGeometry x="1730" y="50" width="50" height="460" as="geometry" />
        </mxCell>
        <mxCell id="aoiIvWKllZCUMls8HDCo-55" value="GOHAN&lt;br&gt;KRILIN&lt;div&gt;BULMA&lt;/div&gt;" style="rounded=0;whiteSpace=wrap;html=1;" parent="1" vertex="1">
          <mxGeometry x="1068" y="-40" width="120" height="60" as="geometry" />
        </mxCell>
        <mxCell id="aoiIvWKllZCUMls8HDCo-68" value="Dende" style="shape=umlActor;verticalLabelPosition=bottom;verticalAlign=top;html=1;outlineConnect=0;direction=east;rotation=0;" parent="1" vertex="1">
          <mxGeometry x="2410" y="120" width="30" height="60" as="geometry" />
        </mxCell>
        <mxCell id="aoiIvWKllZCUMls8HDCo-69" value="13" style="rounded=0;whiteSpace=wrap;html=1;" parent="1" vertex="1">
          <mxGeometry x="2560" y="45" width="50" height="460" as="geometry" />
        </mxCell>
        <mxCell id="aoiIvWKllZCUMls8HDCo-130" value="" style="edgeStyle=orthogonalEdgeStyle;rounded=0;orthogonalLoop=1;jettySize=auto;html=1;" parent="1" source="aoiIvWKllZCUMls8HDCo-70" target="aoiIvWKllZCUMls8HDCo-69" edge="1">
          <mxGeometry relative="1" as="geometry" />
        </mxCell>
        <mxCell id="aoiIvWKllZCUMls8HDCo-70" value="ALTAR" style="ellipse;shape=cloud;whiteSpace=wrap;html=1;" parent="1" vertex="1">
          <mxGeometry x="2410" y="235" width="106" height="80" as="geometry" />
        </mxCell>
        <mxCell id="aoiIvWKllZCUMls8HDCo-73" style="edgeStyle=orthogonalEdgeStyle;rounded=0;orthogonalLoop=1;jettySize=auto;html=1;entryX=0.4;entryY=0.1;entryDx=0;entryDy=0;entryPerimeter=0;" parent="1" source="aoiIvWKllZCUMls8HDCo-68" edge="1">
          <mxGeometry relative="1" as="geometry">
            <mxPoint x="2464.4000000000005" y="244" as="targetPoint" />
          </mxGeometry>
        </mxCell>
        <mxCell id="aoiIvWKllZCUMls8HDCo-74" value="14" style="rounded=0;whiteSpace=wrap;html=1;" parent="1" vertex="1">
          <mxGeometry x="2790" y="60" width="50" height="460" as="geometry" />
        </mxCell>
        <mxCell id="aoiIvWKllZCUMls8HDCo-81" style="edgeStyle=orthogonalEdgeStyle;rounded=0;orthogonalLoop=1;jettySize=auto;html=1;" parent="1" source="aoiIvWKllZCUMls8HDCo-75" target="aoiIvWKllZCUMls8HDCo-74" edge="1">
          <mxGeometry relative="1" as="geometry" />
        </mxCell>
        <mxCell id="aoiIvWKllZCUMls8HDCo-75" value="" style="ellipse;whiteSpace=wrap;html=1;aspect=fixed;" parent="1" vertex="1">
          <mxGeometry x="2690" y="235" width="50" height="50" as="geometry" />
        </mxCell>
        <mxCell id="aoiIvWKllZCUMls8HDCo-76" value="GUARDIAN" style="text;html=1;align=center;verticalAlign=middle;whiteSpace=wrap;rounded=0;" parent="1" vertex="1">
          <mxGeometry x="2680" y="190" width="60" height="30" as="geometry" />
        </mxCell>
        <mxCell id="aoiIvWKllZCUMls8HDCo-85" style="edgeStyle=orthogonalEdgeStyle;rounded=0;orthogonalLoop=1;jettySize=auto;html=1;" parent="1" source="aoiIvWKllZCUMls8HDCo-78" target="aoiIvWKllZCUMls8HDCo-83" edge="1">
          <mxGeometry relative="1" as="geometry" />
        </mxCell>
        <mxCell id="aoiIvWKllZCUMls8HDCo-78" value="" style="ellipse;whiteSpace=wrap;html=1;aspect=fixed;" parent="1" vertex="1">
          <mxGeometry x="2908" y="240" width="50" height="50" as="geometry" />
        </mxCell>
        <mxCell id="aoiIvWKllZCUMls8HDCo-79" value="GUARDIAN&lt;br&gt;SEGUNDA FASE" style="text;html=1;align=center;verticalAlign=middle;whiteSpace=wrap;rounded=0;" parent="1" vertex="1">
          <mxGeometry x="2898" y="190" width="60" height="30" as="geometry" />
        </mxCell>
        <mxCell id="aoiIvWKllZCUMls8HDCo-80" style="edgeStyle=orthogonalEdgeStyle;rounded=0;orthogonalLoop=1;jettySize=auto;html=1;entryX=1.026;entryY=0.448;entryDx=0;entryDy=0;entryPerimeter=0;" parent="1" source="aoiIvWKllZCUMls8HDCo-75" target="aoiIvWKllZCUMls8HDCo-69" edge="1">
          <mxGeometry relative="1" as="geometry" />
        </mxCell>
        <mxCell id="aoiIvWKllZCUMls8HDCo-83" value="15" style="rounded=0;whiteSpace=wrap;html=1;" parent="1" vertex="1">
          <mxGeometry x="3000" y="50" width="50" height="460" as="geometry" />
        </mxCell>
        <mxCell id="aoiIvWKllZCUMls8HDCo-86" style="edgeStyle=orthogonalEdgeStyle;rounded=0;orthogonalLoop=1;jettySize=auto;html=1;entryX=0.965;entryY=0.467;entryDx=0;entryDy=0;entryPerimeter=0;" parent="1" source="aoiIvWKllZCUMls8HDCo-78" target="aoiIvWKllZCUMls8HDCo-74" edge="1">
          <mxGeometry relative="1" as="geometry" />
        </mxCell>
        <mxCell id="aoiIvWKllZCUMls8HDCo-87" value="GOHAN&lt;br&gt;KRILIN&lt;div&gt;BULMA&lt;br&gt;DENDE&lt;/div&gt;" style="rounded=0;whiteSpace=wrap;html=1;" parent="1" vertex="1">
          <mxGeometry x="2560" y="-40" width="120" height="60" as="geometry" />
        </mxCell>
        <mxCell id="aoiIvWKllZCUMls8HDCo-89" value="2Esfera" style="shape=xor;whiteSpace=wrap;html=1;" parent="1" vertex="1">
          <mxGeometry x="2990" y="-10" width="80" height="40" as="geometry" />
        </mxCell>
        <mxCell id="aoiIvWKllZCUMls8HDCo-90" value="16" style="rounded=0;whiteSpace=wrap;html=1;" parent="1" vertex="1">
          <mxGeometry x="3200" y="40" width="50" height="460" as="geometry" />
        </mxCell>
        <mxCell id="aoiIvWKllZCUMls8HDCo-172" value="" style="edgeStyle=orthogonalEdgeStyle;rounded=0;orthogonalLoop=1;jettySize=auto;html=1;" parent="1" source="aoiIvWKllZCUMls8HDCo-91" target="aoiIvWKllZCUMls8HDCo-1" edge="1">
          <mxGeometry relative="1" as="geometry" />
        </mxCell>
        <mxCell id="aoiIvWKllZCUMls8HDCo-91" value="00" style="rounded=0;whiteSpace=wrap;html=1;" parent="1" vertex="1">
          <mxGeometry x="-30" y="60" width="60" height="460" as="geometry" />
        </mxCell>
        <mxCell id="aoiIvWKllZCUMls8HDCo-92" value="04" style="rounded=0;whiteSpace=wrap;html=1;" parent="1" vertex="1">
          <mxGeometry x="650" y="185" width="50" height="150" as="geometry" />
        </mxCell>
        <mxCell id="aoiIvWKllZCUMls8HDCo-94" value="BANDIDOS" style="text;html=1;align=center;verticalAlign=middle;whiteSpace=wrap;rounded=0;" parent="1" vertex="1">
          <mxGeometry x="560" y="190" width="60" height="30" as="geometry" />
        </mxCell>
        <mxCell id="aoiIvWKllZCUMls8HDCo-95" style="edgeStyle=orthogonalEdgeStyle;rounded=0;orthogonalLoop=1;jettySize=auto;html=1;entryX=0.025;entryY=0.185;entryDx=0;entryDy=0;entryPerimeter=0;" parent="1" source="aoiIvWKllZCUMls8HDCo-92" target="aoiIvWKllZCUMls8HDCo-27" edge="1">
          <mxGeometry relative="1" as="geometry" />
        </mxCell>
        <mxCell id="aoiIvWKllZCUMls8HDCo-96" style="edgeStyle=orthogonalEdgeStyle;rounded=0;orthogonalLoop=1;jettySize=auto;html=1;entryX=0.025;entryY=0.421;entryDx=0;entryDy=0;entryPerimeter=0;" parent="1" source="aoiIvWKllZCUMls8HDCo-36" target="aoiIvWKllZCUMls8HDCo-41" edge="1">
          <mxGeometry relative="1" as="geometry" />
        </mxCell>
        <mxCell id="aoiIvWKllZCUMls8HDCo-103" style="edgeStyle=orthogonalEdgeStyle;rounded=0;orthogonalLoop=1;jettySize=auto;html=1;" parent="1" source="aoiIvWKllZCUMls8HDCo-98" target="aoiIvWKllZCUMls8HDCo-48" edge="1">
          <mxGeometry relative="1" as="geometry" />
        </mxCell>
        <mxCell id="aoiIvWKllZCUMls8HDCo-98" value="08" style="rounded=0;whiteSpace=wrap;html=1;" parent="1" vertex="1">
          <mxGeometry x="1350" y="85" width="50" height="70" as="geometry" />
        </mxCell>
        <mxCell id="aoiIvWKllZCUMls8HDCo-104" value="" style="ellipse;whiteSpace=wrap;html=1;aspect=fixed;" parent="1" vertex="1">
          <mxGeometry x="1450" y="350" width="80" height="80" as="geometry" />
        </mxCell>
        <mxCell id="aoiIvWKllZCUMls8HDCo-106" style="edgeStyle=orthogonalEdgeStyle;rounded=0;orthogonalLoop=1;jettySize=auto;html=1;" parent="1" source="aoiIvWKllZCUMls8HDCo-105" target="aoiIvWKllZCUMls8HDCo-104" edge="1">
          <mxGeometry relative="1" as="geometry" />
        </mxCell>
        <mxCell id="aoiIvWKllZCUMls8HDCo-105" value="09" style="rounded=0;whiteSpace=wrap;html=1;" parent="1" vertex="1">
          <mxGeometry x="1310" y="350" width="50" height="70" as="geometry" />
        </mxCell>
        <mxCell id="aoiIvWKllZCUMls8HDCo-107" style="edgeStyle=orthogonalEdgeStyle;rounded=0;orthogonalLoop=1;jettySize=auto;html=1;entryX=0.025;entryY=0.565;entryDx=0;entryDy=0;entryPerimeter=0;" parent="1" source="aoiIvWKllZCUMls8HDCo-104" target="aoiIvWKllZCUMls8HDCo-48" edge="1">
          <mxGeometry relative="1" as="geometry" />
        </mxCell>
        <mxCell id="aoiIvWKllZCUMls8HDCo-108" value="BESTIAS DE LA NIEBLA" style="text;html=1;align=center;verticalAlign=middle;whiteSpace=wrap;rounded=0;" parent="1" vertex="1">
          <mxGeometry x="1460" y="300" width="60" height="30" as="geometry" />
        </mxCell>
        <mxCell id="aoiIvWKllZCUMls8HDCo-109" value="" style="rhombus;whiteSpace=wrap;html=1;" parent="1" vertex="1">
          <mxGeometry x="1180" y="220" width="80" height="80" as="geometry" />
        </mxCell>
        <mxCell id="aoiIvWKllZCUMls8HDCo-110" value="OPCION C" style="text;html=1;align=center;verticalAlign=middle;whiteSpace=wrap;rounded=0;" parent="1" vertex="1">
          <mxGeometry x="1180" y="190" width="60" height="30" as="geometry" />
        </mxCell>
        <mxCell id="aoiIvWKllZCUMls8HDCo-111" value="OPCION A,B o D" style="text;html=1;align=center;verticalAlign=middle;whiteSpace=wrap;rounded=0;" parent="1" vertex="1">
          <mxGeometry x="1180" y="300" width="60" height="30" as="geometry" />
        </mxCell>
        <mxCell id="aoiIvWKllZCUMls8HDCo-114" style="edgeStyle=orthogonalEdgeStyle;rounded=0;orthogonalLoop=1;jettySize=auto;html=1;entryX=1.025;entryY=0.446;entryDx=0;entryDy=0;entryPerimeter=0;exitX=0;exitY=0.5;exitDx=0;exitDy=0;" parent="1" source="aoiIvWKllZCUMls8HDCo-118" target="aoiIvWKllZCUMls8HDCo-48" edge="1">
          <mxGeometry relative="1" as="geometry">
            <mxPoint x="1870" y="255" as="sourcePoint" />
          </mxGeometry>
        </mxCell>
        <mxCell id="aoiIvWKllZCUMls8HDCo-117" value="12" style="rounded=0;whiteSpace=wrap;html=1;" parent="1" vertex="1">
          <mxGeometry x="2300" y="60" width="50" height="460" as="geometry" />
        </mxCell>
        <mxCell id="aoiIvWKllZCUMls8HDCo-122" style="edgeStyle=orthogonalEdgeStyle;rounded=0;orthogonalLoop=1;jettySize=auto;html=1;entryX=0;entryY=0.25;entryDx=0;entryDy=0;" parent="1" source="aoiIvWKllZCUMls8HDCo-118" target="aoiIvWKllZCUMls8HDCo-117" edge="1">
          <mxGeometry relative="1" as="geometry" />
        </mxCell>
        <mxCell id="aoiIvWKllZCUMls8HDCo-118" value="11" style="rounded=0;whiteSpace=wrap;html=1;" parent="1" vertex="1">
          <mxGeometry x="1990" y="222.5" width="50" height="70" as="geometry" />
        </mxCell>
        <mxCell id="aoiIvWKllZCUMls8HDCo-128" style="edgeStyle=orthogonalEdgeStyle;rounded=0;orthogonalLoop=1;jettySize=auto;html=1;entryX=0.975;entryY=0.465;entryDx=0;entryDy=0;entryPerimeter=0;" parent="1" source="aoiIvWKllZCUMls8HDCo-70" target="aoiIvWKllZCUMls8HDCo-117" edge="1">
          <mxGeometry relative="1" as="geometry" />
        </mxCell>
        <mxCell id="aoiIvWKllZCUMls8HDCo-136" value="" style="edgeStyle=orthogonalEdgeStyle;rounded=0;orthogonalLoop=1;jettySize=auto;html=1;" parent="1" source="aoiIvWKllZCUMls8HDCo-135" target="aoiIvWKllZCUMls8HDCo-83" edge="1">
          <mxGeometry relative="1" as="geometry" />
        </mxCell>
        <mxCell id="aoiIvWKllZCUMls8HDCo-137" value="" style="edgeStyle=orthogonalEdgeStyle;rounded=0;orthogonalLoop=1;jettySize=auto;html=1;" parent="1" source="aoiIvWKllZCUMls8HDCo-135" target="aoiIvWKllZCUMls8HDCo-90" edge="1">
          <mxGeometry relative="1" as="geometry" />
        </mxCell>
        <mxCell id="aoiIvWKllZCUMls8HDCo-135" value="ALTAR" style="ellipse;shape=cloud;whiteSpace=wrap;html=1;" parent="1" vertex="1">
          <mxGeometry x="3070" y="240" width="106" height="80" as="geometry" />
        </mxCell>
        <mxCell id="aoiIvWKllZCUMls8HDCo-138" value="17" style="rounded=0;whiteSpace=wrap;html=1;" parent="1" vertex="1">
          <mxGeometry x="3380" y="35" width="50" height="460" as="geometry" />
        </mxCell>
        <mxCell id="aoiIvWKllZCUMls8HDCo-141" style="edgeStyle=orthogonalEdgeStyle;rounded=0;orthogonalLoop=1;jettySize=auto;html=1;entryX=1;entryY=0.5;entryDx=0;entryDy=0;" parent="1" source="aoiIvWKllZCUMls8HDCo-139" target="aoiIvWKllZCUMls8HDCo-90" edge="1">
          <mxGeometry relative="1" as="geometry" />
        </mxCell>
        <mxCell id="aoiIvWKllZCUMls8HDCo-142" style="edgeStyle=orthogonalEdgeStyle;rounded=0;orthogonalLoop=1;jettySize=auto;html=1;entryX=0;entryY=0.5;entryDx=0;entryDy=0;" parent="1" source="aoiIvWKllZCUMls8HDCo-139" target="aoiIvWKllZCUMls8HDCo-138" edge="1">
          <mxGeometry relative="1" as="geometry" />
        </mxCell>
        <mxCell id="aoiIvWKllZCUMls8HDCo-139" value="" style="ellipse;whiteSpace=wrap;html=1;aspect=fixed;" parent="1" vertex="1">
          <mxGeometry x="3290" y="237.5" width="45" height="45" as="geometry" />
        </mxCell>
        <mxCell id="aoiIvWKllZCUMls8HDCo-143" value="SOLDADOS FREEZER ELITE" style="text;html=1;align=center;verticalAlign=middle;whiteSpace=wrap;rounded=0;" parent="1" vertex="1">
          <mxGeometry x="3282.5" y="185" width="60" height="30" as="geometry" />
        </mxCell>
        <mxCell id="aoiIvWKllZCUMls8HDCo-144" value="19" style="rounded=0;whiteSpace=wrap;html=1;" parent="1" vertex="1">
          <mxGeometry x="3850" y="20" width="50" height="460" as="geometry" />
        </mxCell>
        <mxCell id="aoiIvWKllZCUMls8HDCo-157" style="edgeStyle=orthogonalEdgeStyle;rounded=0;orthogonalLoop=1;jettySize=auto;html=1;entryX=1;entryY=0.5;entryDx=0;entryDy=0;" parent="1" target="aoiIvWKllZCUMls8HDCo-138" edge="1">
          <mxGeometry relative="1" as="geometry">
            <mxPoint x="3470" y="250" as="sourcePoint" />
          </mxGeometry>
        </mxCell>
        <mxCell id="aoiIvWKllZCUMls8HDCo-155" value="" style="edgeStyle=orthogonalEdgeStyle;rounded=0;orthogonalLoop=1;jettySize=auto;html=1;" parent="1" source="aoiIvWKllZCUMls8HDCo-148" target="aoiIvWKllZCUMls8HDCo-144" edge="1">
          <mxGeometry relative="1" as="geometry" />
        </mxCell>
        <mxCell id="aoiIvWKllZCUMls8HDCo-148" value="" style="ellipse;whiteSpace=wrap;html=1;aspect=fixed;" parent="1" vertex="1">
          <mxGeometry x="3710" y="162.5" width="50" height="50" as="geometry" />
        </mxCell>
        <mxCell id="aoiIvWKllZCUMls8HDCo-149" value="GOLEM NAMEKIANO" style="text;html=1;align=center;verticalAlign=middle;whiteSpace=wrap;rounded=0;" parent="1" vertex="1">
          <mxGeometry x="3700" y="230" width="60" height="30" as="geometry" />
        </mxCell>
        <mxCell id="aoiIvWKllZCUMls8HDCo-152" style="edgeStyle=orthogonalEdgeStyle;rounded=0;orthogonalLoop=1;jettySize=auto;html=1;" parent="1" source="aoiIvWKllZCUMls8HDCo-153" target="aoiIvWKllZCUMls8HDCo-148" edge="1">
          <mxGeometry relative="1" as="geometry" />
        </mxCell>
        <mxCell id="aoiIvWKllZCUMls8HDCo-153" value="18" style="rounded=0;whiteSpace=wrap;html=1;" parent="1" vertex="1">
          <mxGeometry x="3617.5" y="140" width="50" height="70" as="geometry" />
        </mxCell>
        <mxCell id="aoiIvWKllZCUMls8HDCo-154" style="edgeStyle=orthogonalEdgeStyle;rounded=0;orthogonalLoop=1;jettySize=auto;html=1;" parent="1" source="aoiIvWKllZCUMls8HDCo-153" edge="1">
          <mxGeometry relative="1" as="geometry">
            <mxPoint x="3470" y="250" as="targetPoint" />
          </mxGeometry>
        </mxCell>
        <mxCell id="aoiIvWKllZCUMls8HDCo-158" value="JUEGO DE LOS SONIDOS Y COLORES&lt;div&gt;&lt;br&gt;&lt;/div&gt;" style="shape=process;whiteSpace=wrap;html=1;backgroundOutline=1;" parent="1" vertex="1">
          <mxGeometry x="3960" y="205" width="360" height="185" as="geometry" />
        </mxCell>
        <mxCell id="aoiIvWKllZCUMls8HDCo-159" style="edgeStyle=orthogonalEdgeStyle;rounded=0;orthogonalLoop=1;jettySize=auto;html=1;entryX=0.925;entryY=0.473;entryDx=0;entryDy=0;entryPerimeter=0;" parent="1" source="aoiIvWKllZCUMls8HDCo-158" target="aoiIvWKllZCUMls8HDCo-144" edge="1">
          <mxGeometry relative="1" as="geometry" />
        </mxCell>
        <mxCell id="aoiIvWKllZCUMls8HDCo-167" value="" style="edgeStyle=orthogonalEdgeStyle;rounded=0;orthogonalLoop=1;jettySize=auto;html=1;" parent="1" source="aoiIvWKllZCUMls8HDCo-160" target="aoiIvWKllZCUMls8HDCo-166" edge="1">
          <mxGeometry relative="1" as="geometry" />
        </mxCell>
        <mxCell id="aoiIvWKllZCUMls8HDCo-160" value="20" style="rounded=0;whiteSpace=wrap;html=1;" parent="1" vertex="1">
          <mxGeometry x="4390" y="50" width="50" height="460" as="geometry" />
        </mxCell>
        <mxCell id="aoiIvWKllZCUMls8HDCo-161" style="edgeStyle=orthogonalEdgeStyle;rounded=0;orthogonalLoop=1;jettySize=auto;html=1;entryX=1.003;entryY=0.412;entryDx=0;entryDy=0;entryPerimeter=0;" parent="1" source="aoiIvWKllZCUMls8HDCo-160" target="aoiIvWKllZCUMls8HDCo-158" edge="1">
          <mxGeometry relative="1" as="geometry" />
        </mxCell>
        <mxCell id="aoiIvWKllZCUMls8HDCo-166" value="21" style="rounded=0;whiteSpace=wrap;html=1;" parent="1" vertex="1">
          <mxGeometry x="4540" y="50" width="50" height="460" as="geometry" />
        </mxCell>
        <mxCell id="aoiIvWKllZCUMls8HDCo-169" value="" style="edgeStyle=orthogonalEdgeStyle;rounded=0;orthogonalLoop=1;jettySize=auto;html=1;" parent="1" source="aoiIvWKllZCUMls8HDCo-168" target="aoiIvWKllZCUMls8HDCo-166" edge="1">
          <mxGeometry relative="1" as="geometry" />
        </mxCell>
        <mxCell id="aoiIvWKllZCUMls8HDCo-168" value="ALTAR" style="ellipse;shape=cloud;whiteSpace=wrap;html=1;" parent="1" vertex="1">
          <mxGeometry x="4620" y="240" width="106" height="80" as="geometry" />
        </mxCell>
        <mxCell id="aoiIvWKllZCUMls8HDCo-174" value="" style="edgeStyle=orthogonalEdgeStyle;rounded=0;orthogonalLoop=1;jettySize=auto;html=1;" parent="1" source="aoiIvWKllZCUMls8HDCo-170" target="aoiIvWKllZCUMls8HDCo-173" edge="1">
          <mxGeometry relative="1" as="geometry" />
        </mxCell>
        <mxCell id="aoiIvWKllZCUMls8HDCo-170" value="22" style="rounded=0;whiteSpace=wrap;html=1;" parent="1" vertex="1">
          <mxGeometry x="4760" y="45" width="50" height="460" as="geometry" />
        </mxCell>
        <mxCell id="aoiIvWKllZCUMls8HDCo-171" style="edgeStyle=orthogonalEdgeStyle;rounded=0;orthogonalLoop=1;jettySize=auto;html=1;entryX=0.875;entryY=0.5;entryDx=0;entryDy=0;entryPerimeter=0;" parent="1" source="aoiIvWKllZCUMls8HDCo-170" target="aoiIvWKllZCUMls8HDCo-168" edge="1">
          <mxGeometry relative="1" as="geometry" />
        </mxCell>
        <mxCell id="aoiIvWKllZCUMls8HDCo-173" value="" style="ellipse;whiteSpace=wrap;html=1;aspect=fixed;" parent="1" vertex="1">
          <mxGeometry x="4860" y="250" width="50" height="50" as="geometry" />
        </mxCell>
        <mxCell id="aoiIvWKllZCUMls8HDCo-175" value="SOLDADOS INTERMEDIOS" style="text;html=1;align=center;verticalAlign=middle;whiteSpace=wrap;rounded=0;" parent="1" vertex="1">
          <mxGeometry x="4855" y="212.5" width="60" height="30" as="geometry" />
        </mxCell>
        <mxCell id="aoiIvWKllZCUMls8HDCo-177" style="edgeStyle=orthogonalEdgeStyle;rounded=0;orthogonalLoop=1;jettySize=auto;html=1;" parent="1" source="aoiIvWKllZCUMls8HDCo-176" edge="1">
          <mxGeometry relative="1" as="geometry">
            <mxPoint x="4840" y="280" as="targetPoint" />
          </mxGeometry>
        </mxCell>
        <mxCell id="aoiIvWKllZCUMls8HDCo-176" value="Piccolo" style="shape=umlActor;verticalLabelPosition=bottom;verticalAlign=top;html=1;outlineConnect=0;" parent="1" vertex="1">
          <mxGeometry x="4830" y="120" width="30" height="60" as="geometry" />
        </mxCell>
        <mxCell id="aoiIvWKllZCUMls8HDCo-179" value="GOHAN&lt;br&gt;KRILIN&lt;div&gt;BULMA&lt;br&gt;DENDE&lt;br&gt;PICCOLO&lt;/div&gt;" style="rounded=0;whiteSpace=wrap;html=1;" parent="1" vertex="1">
          <mxGeometry x="4842" y="-45" width="120" height="80" as="geometry" />
        </mxCell>
        <mxCell id="aoiIvWKllZCUMls8HDCo-180" value="+ HOLOGRAMA FREEZER" style="text;html=1;align=center;verticalAlign=middle;whiteSpace=wrap;rounded=0;" parent="1" vertex="1">
          <mxGeometry x="4855" y="310" width="60" height="30" as="geometry" />
        </mxCell>
        <mxCell id="aoiIvWKllZCUMls8HDCo-182" style="edgeStyle=orthogonalEdgeStyle;rounded=0;orthogonalLoop=1;jettySize=auto;html=1;entryX=1;entryY=0.5;entryDx=0;entryDy=0;" parent="1" source="aoiIvWKllZCUMls8HDCo-181" target="aoiIvWKllZCUMls8HDCo-173" edge="1">
          <mxGeometry relative="1" as="geometry" />
        </mxCell>
        <mxCell id="aoiIvWKllZCUMls8HDCo-189" value="" style="edgeStyle=orthogonalEdgeStyle;rounded=0;orthogonalLoop=1;jettySize=auto;html=1;" parent="1" source="aoiIvWKllZCUMls8HDCo-181" target="aoiIvWKllZCUMls8HDCo-184" edge="1">
          <mxGeometry relative="1" as="geometry" />
        </mxCell>
        <mxCell id="aoiIvWKllZCUMls8HDCo-181" value="23" style="rounded=0;whiteSpace=wrap;html=1;" parent="1" vertex="1">
          <mxGeometry x="5000" y="50" width="50" height="460" as="geometry" />
        </mxCell>
        <mxCell id="aoiIvWKllZCUMls8HDCo-183" value="GOHAN&lt;br&gt;KRILIN&lt;div&gt;BULMA&lt;br&gt;DENDE&lt;br&gt;PICCOLO&lt;/div&gt;" style="rounded=0;whiteSpace=wrap;html=1;" parent="1" vertex="1">
          <mxGeometry x="4980" y="-45" width="120" height="80" as="geometry" />
        </mxCell>
        <mxCell id="aoiIvWKllZCUMls8HDCo-192" value="" style="edgeStyle=orthogonalEdgeStyle;rounded=0;orthogonalLoop=1;jettySize=auto;html=1;" parent="1" source="aoiIvWKllZCUMls8HDCo-184" target="aoiIvWKllZCUMls8HDCo-190" edge="1">
          <mxGeometry relative="1" as="geometry" />
        </mxCell>
        <mxCell id="aoiIvWKllZCUMls8HDCo-184" value="24" style="rounded=0;whiteSpace=wrap;html=1;" parent="1" vertex="1">
          <mxGeometry x="5100" y="50" width="50" height="460" as="geometry" />
        </mxCell>
        <mxCell id="aoiIvWKllZCUMls8HDCo-194" value="" style="edgeStyle=orthogonalEdgeStyle;rounded=0;orthogonalLoop=1;jettySize=auto;html=1;" parent="1" source="aoiIvWKllZCUMls8HDCo-190" target="aoiIvWKllZCUMls8HDCo-193" edge="1">
          <mxGeometry relative="1" as="geometry" />
        </mxCell>
        <mxCell id="aoiIvWKllZCUMls8HDCo-190" value="ALTAR" style="ellipse;shape=cloud;whiteSpace=wrap;html=1;" parent="1" vertex="1">
          <mxGeometry x="5180" y="235" width="106" height="80" as="geometry" />
        </mxCell>
        <mxCell id="ppput0iVU3OVk3rFd403-1" style="edgeStyle=orthogonalEdgeStyle;rounded=0;orthogonalLoop=1;jettySize=auto;html=1;exitX=1;exitY=0.5;exitDx=0;exitDy=0;entryX=0;entryY=0.5;entryDx=0;entryDy=0;" edge="1" parent="1" source="aoiIvWKllZCUMls8HDCo-193" target="aoiIvWKllZCUMls8HDCo-211">
          <mxGeometry relative="1" as="geometry" />
        </mxCell>
        <mxCell id="aoiIvWKllZCUMls8HDCo-193" value="25" style="rounded=0;whiteSpace=wrap;html=1;" parent="1" vertex="1">
          <mxGeometry x="5326" y="45" width="50" height="460" as="geometry" />
        </mxCell>
        <mxCell id="aoiIvWKllZCUMls8HDCo-218" value="" style="edgeStyle=orthogonalEdgeStyle;rounded=0;orthogonalLoop=1;jettySize=auto;html=1;" parent="1" source="aoiIvWKllZCUMls8HDCo-205" target="aoiIvWKllZCUMls8HDCo-213" edge="1">
          <mxGeometry relative="1" as="geometry" />
        </mxCell>
        <mxCell id="aoiIvWKllZCUMls8HDCo-205" value="" style="ellipse;whiteSpace=wrap;html=1;aspect=fixed;" parent="1" vertex="1">
          <mxGeometry x="5690" y="250" width="50" height="50" as="geometry" />
        </mxCell>
        <mxCell id="aoiIvWKllZCUMls8HDCo-207" value="BANDIDOS DE NAMEK" style="text;html=1;align=center;verticalAlign=middle;whiteSpace=wrap;rounded=0;" parent="1" vertex="1">
          <mxGeometry x="5660" y="120" width="100" height="30" as="geometry" />
        </mxCell>
        <mxCell id="aoiIvWKllZCUMls8HDCo-221" value="" style="edgeStyle=orthogonalEdgeStyle;rounded=0;orthogonalLoop=1;jettySize=auto;html=1;" parent="1" source="aoiIvWKllZCUMls8HDCo-208" target="aoiIvWKllZCUMls8HDCo-220" edge="1">
          <mxGeometry relative="1" as="geometry" />
        </mxCell>
        <mxCell id="aoiIvWKllZCUMls8HDCo-208" value="28" style="rounded=0;whiteSpace=wrap;html=1;" parent="1" vertex="1">
          <mxGeometry x="5990" y="45" width="50" height="460" as="geometry" />
        </mxCell>
        <mxCell id="aoiIvWKllZCUMls8HDCo-217" value="" style="edgeStyle=orthogonalEdgeStyle;rounded=0;orthogonalLoop=1;jettySize=auto;html=1;" parent="1" source="aoiIvWKllZCUMls8HDCo-211" target="aoiIvWKllZCUMls8HDCo-205" edge="1">
          <mxGeometry relative="1" as="geometry" />
        </mxCell>
        <mxCell id="aoiIvWKllZCUMls8HDCo-211" value="26" style="rounded=0;whiteSpace=wrap;html=1;fontStyle=1" parent="1" vertex="1">
          <mxGeometry x="5450" y="240" width="50" height="70" as="geometry" />
        </mxCell>
        <mxCell id="aoiIvWKllZCUMls8HDCo-219" style="edgeStyle=orthogonalEdgeStyle;rounded=0;orthogonalLoop=1;jettySize=auto;html=1;" parent="1" source="aoiIvWKllZCUMls8HDCo-213" target="aoiIvWKllZCUMls8HDCo-208" edge="1">
          <mxGeometry relative="1" as="geometry" />
        </mxCell>
        <mxCell id="aoiIvWKllZCUMls8HDCo-213" value="27" style="rounded=0;whiteSpace=wrap;html=1;" parent="1" vertex="1">
          <mxGeometry x="5840" y="240" width="50" height="70" as="geometry" />
        </mxCell>
        <mxCell id="aoiIvWKllZCUMls8HDCo-225" value="" style="edgeStyle=orthogonalEdgeStyle;rounded=0;orthogonalLoop=1;jettySize=auto;html=1;" parent="1" source="aoiIvWKllZCUMls8HDCo-220" target="aoiIvWKllZCUMls8HDCo-223" edge="1">
          <mxGeometry relative="1" as="geometry" />
        </mxCell>
        <mxCell id="aoiIvWKllZCUMls8HDCo-220" value="29" style="rounded=0;whiteSpace=wrap;html=1;" parent="1" vertex="1">
          <mxGeometry x="6070" y="50" width="50" height="460" as="geometry" />
        </mxCell>
        <mxCell id="aoiIvWKllZCUMls8HDCo-227" value="" style="edgeStyle=orthogonalEdgeStyle;rounded=0;orthogonalLoop=1;jettySize=auto;html=1;" parent="1" source="aoiIvWKllZCUMls8HDCo-223" target="aoiIvWKllZCUMls8HDCo-226" edge="1">
          <mxGeometry relative="1" as="geometry" />
        </mxCell>
        <mxCell id="aoiIvWKllZCUMls8HDCo-223" value="30" style="rounded=0;whiteSpace=wrap;html=1;" parent="1" vertex="1">
          <mxGeometry x="6152.5" y="50" width="50" height="460" as="geometry" />
        </mxCell>
        <mxCell id="aoiIvWKllZCUMls8HDCo-230" value="" style="edgeStyle=orthogonalEdgeStyle;rounded=0;orthogonalLoop=1;jettySize=auto;html=1;" parent="1" source="aoiIvWKllZCUMls8HDCo-226" target="aoiIvWKllZCUMls8HDCo-229" edge="1">
          <mxGeometry relative="1" as="geometry" />
        </mxCell>
        <mxCell id="aoiIvWKllZCUMls8HDCo-226" value="" style="ellipse;whiteSpace=wrap;html=1;aspect=fixed;" parent="1" vertex="1">
          <mxGeometry x="6250" y="255" width="50" height="50" as="geometry" />
        </mxCell>
        <mxCell id="aoiIvWKllZCUMls8HDCo-228" value="SOLDADOS SAIYAJIN" style="text;html=1;align=center;verticalAlign=middle;whiteSpace=wrap;rounded=0;" parent="1" vertex="1">
          <mxGeometry x="6225" y="220" width="100" height="30" as="geometry" />
        </mxCell>
        <mxCell id="aoiIvWKllZCUMls8HDCo-232" value="" style="edgeStyle=orthogonalEdgeStyle;rounded=0;orthogonalLoop=1;jettySize=auto;html=1;" parent="1" source="aoiIvWKllZCUMls8HDCo-229" target="aoiIvWKllZCUMls8HDCo-231" edge="1">
          <mxGeometry relative="1" as="geometry" />
        </mxCell>
        <mxCell id="aoiIvWKllZCUMls8HDCo-229" value="31" style="rounded=0;whiteSpace=wrap;html=1;" parent="1" vertex="1">
          <mxGeometry x="6320" y="50" width="50" height="460" as="geometry" />
        </mxCell>
        <mxCell id="aoiIvWKllZCUMls8HDCo-235" value="" style="edgeStyle=orthogonalEdgeStyle;rounded=0;orthogonalLoop=1;jettySize=auto;html=1;" parent="1" source="aoiIvWKllZCUMls8HDCo-231" target="aoiIvWKllZCUMls8HDCo-234" edge="1">
          <mxGeometry relative="1" as="geometry" />
        </mxCell>
        <mxCell id="aoiIvWKllZCUMls8HDCo-231" value="" style="ellipse;whiteSpace=wrap;html=1;aspect=fixed;" parent="1" vertex="1">
          <mxGeometry x="6410" y="255" width="50" height="50" as="geometry" />
        </mxCell>
        <mxCell id="aoiIvWKllZCUMls8HDCo-233" value="VEGETA" style="text;html=1;align=center;verticalAlign=middle;whiteSpace=wrap;rounded=0;" parent="1" vertex="1">
          <mxGeometry x="6385" y="220" width="100" height="30" as="geometry" />
        </mxCell>
        <mxCell id="aoiIvWKllZCUMls8HDCo-234" value="32" style="rounded=0;whiteSpace=wrap;html=1;" parent="1" vertex="1">
          <mxGeometry x="6490" y="45" width="50" height="460" as="geometry" />
        </mxCell>
        <mxCell id="aoiIvWKllZCUMls8HDCo-245" value="" style="edgeStyle=orthogonalEdgeStyle;rounded=0;orthogonalLoop=1;jettySize=auto;html=1;" parent="1" source="aoiIvWKllZCUMls8HDCo-236" target="aoiIvWKllZCUMls8HDCo-238" edge="1">
          <mxGeometry relative="1" as="geometry" />
        </mxCell>
        <mxCell id="aoiIvWKllZCUMls8HDCo-236" value="33" style="rounded=0;whiteSpace=wrap;html=1;" parent="1" vertex="1">
          <mxGeometry x="6670" y="145" width="50" height="70" as="geometry" />
        </mxCell>
        <mxCell id="aoiIvWKllZCUMls8HDCo-243" value="" style="edgeStyle=orthogonalEdgeStyle;rounded=0;orthogonalLoop=1;jettySize=auto;html=1;" parent="1" source="aoiIvWKllZCUMls8HDCo-237" target="aoiIvWKllZCUMls8HDCo-238" edge="1">
          <mxGeometry relative="1" as="geometry" />
        </mxCell>
        <mxCell id="aoiIvWKllZCUMls8HDCo-237" value="34" style="rounded=0;whiteSpace=wrap;html=1;" parent="1" vertex="1">
          <mxGeometry x="6670" y="295" width="50" height="70" as="geometry" />
        </mxCell>
        <mxCell id="aoiIvWKllZCUMls8HDCo-238" value="35" style="rounded=0;whiteSpace=wrap;html=1;" parent="1" vertex="1">
          <mxGeometry x="6800" y="40" width="50" height="460" as="geometry" />
        </mxCell>
        <mxCell id="aoiIvWKllZCUMls8HDCo-241" style="edgeStyle=orthogonalEdgeStyle;rounded=0;orthogonalLoop=1;jettySize=auto;html=1;entryX=0;entryY=0.5;entryDx=0;entryDy=0;exitX=-0.021;exitY=0.938;exitDx=0;exitDy=0;exitPerimeter=0;" parent="1" source="aoiIvWKllZCUMls8HDCo-239" target="aoiIvWKllZCUMls8HDCo-236" edge="1">
          <mxGeometry relative="1" as="geometry" />
        </mxCell>
        <mxCell id="aoiIvWKllZCUMls8HDCo-242" style="edgeStyle=orthogonalEdgeStyle;rounded=0;orthogonalLoop=1;jettySize=auto;html=1;exitX=-0.042;exitY=-0.016;exitDx=0;exitDy=0;exitPerimeter=0;" parent="1" source="aoiIvWKllZCUMls8HDCo-239" target="aoiIvWKllZCUMls8HDCo-237" edge="1">
          <mxGeometry relative="1" as="geometry" />
        </mxCell>
        <mxCell id="aoiIvWKllZCUMls8HDCo-239" value="" style="triangle;whiteSpace=wrap;html=1;rotation=-180;" parent="1" vertex="1">
          <mxGeometry x="6560" y="235" width="60" height="80" as="geometry" />
        </mxCell>
        <mxCell id="aoiIvWKllZCUMls8HDCo-240" style="edgeStyle=orthogonalEdgeStyle;rounded=0;orthogonalLoop=1;jettySize=auto;html=1;entryX=1;entryY=0.519;entryDx=0;entryDy=0;entryPerimeter=0;" parent="1" source="aoiIvWKllZCUMls8HDCo-239" target="aoiIvWKllZCUMls8HDCo-234" edge="1">
          <mxGeometry relative="1" as="geometry" />
        </mxCell>
        <mxCell id="aoiIvWKllZCUMls8HDCo-256" value="" style="edgeStyle=orthogonalEdgeStyle;rounded=0;orthogonalLoop=1;jettySize=auto;html=1;" parent="1" target="aoiIvWKllZCUMls8HDCo-238" edge="1">
          <mxGeometry relative="1" as="geometry">
            <mxPoint x="6950" y="310" as="sourcePoint" />
          </mxGeometry>
        </mxCell>
        <mxCell id="aoiIvWKllZCUMls8HDCo-257" style="edgeStyle=orthogonalEdgeStyle;rounded=0;orthogonalLoop=1;jettySize=auto;html=1;exitX=0.042;exitY=0.047;exitDx=0;exitDy=0;exitPerimeter=0;entryX=0.16;entryY=0.55;entryDx=0;entryDy=0;entryPerimeter=0;" parent="1" target="aoiIvWKllZCUMls8HDCo-259" edge="1">
          <mxGeometry relative="1" as="geometry">
            <mxPoint x="7190" y="310" as="targetPoint" />
            <Array as="points">
              <mxPoint x="7190" y="314" />
              <mxPoint x="7190" y="294" />
            </Array>
            <mxPoint x="6937.48" y="313.74" as="sourcePoint" />
          </mxGeometry>
        </mxCell>
        <mxCell id="aoiIvWKllZCUMls8HDCo-261" value="" style="edgeStyle=orthogonalEdgeStyle;rounded=0;orthogonalLoop=1;jettySize=auto;html=1;" parent="1" source="aoiIvWKllZCUMls8HDCo-259" target="aoiIvWKllZCUMls8HDCo-260" edge="1">
          <mxGeometry relative="1" as="geometry" />
        </mxCell>
        <mxCell id="aoiIvWKllZCUMls8HDCo-259" value="ALTAR" style="ellipse;shape=cloud;whiteSpace=wrap;html=1;" parent="1" vertex="1">
          <mxGeometry x="7200" y="250" width="106" height="80" as="geometry" />
        </mxCell>
        <mxCell id="aoiIvWKllZCUMls8HDCo-264" value="" style="edgeStyle=orthogonalEdgeStyle;rounded=0;orthogonalLoop=1;jettySize=auto;html=1;" parent="1" source="aoiIvWKllZCUMls8HDCo-260" target="aoiIvWKllZCUMls8HDCo-262" edge="1">
          <mxGeometry relative="1" as="geometry" />
        </mxCell>
        <mxCell id="aoiIvWKllZCUMls8HDCo-260" value="36" style="rounded=0;whiteSpace=wrap;html=1;" parent="1" vertex="1">
          <mxGeometry x="7330" y="50" width="50" height="460" as="geometry" />
        </mxCell>
        <mxCell id="aoiIvWKllZCUMls8HDCo-270" style="edgeStyle=orthogonalEdgeStyle;rounded=0;orthogonalLoop=1;jettySize=auto;html=1;entryX=0;entryY=0.5;entryDx=0;entryDy=0;" parent="1" source="aoiIvWKllZCUMls8HDCo-262" target="aoiIvWKllZCUMls8HDCo-268" edge="1">
          <mxGeometry relative="1" as="geometry" />
        </mxCell>
        <mxCell id="aoiIvWKllZCUMls8HDCo-262" value="" style="ellipse;whiteSpace=wrap;html=1;aspect=fixed;" parent="1" vertex="1">
          <mxGeometry x="7448" y="255" width="50" height="50" as="geometry" />
        </mxCell>
        <mxCell id="aoiIvWKllZCUMls8HDCo-266" style="edgeStyle=orthogonalEdgeStyle;rounded=0;orthogonalLoop=1;jettySize=auto;html=1;" parent="1" source="aoiIvWKllZCUMls8HDCo-263" edge="1">
          <mxGeometry relative="1" as="geometry">
            <mxPoint x="7400" y="280" as="targetPoint" />
          </mxGeometry>
        </mxCell>
        <mxCell id="aoiIvWKllZCUMls8HDCo-263" value="Vegeta" style="shape=umlActor;verticalLabelPosition=bottom;verticalAlign=top;html=1;outlineConnect=0;" parent="1" vertex="1">
          <mxGeometry x="7400" y="110" width="30" height="60" as="geometry" />
        </mxCell>
        <mxCell id="aoiIvWKllZCUMls8HDCo-265" value="FUERZAS ESPECIALES GYU" style="text;html=1;align=center;verticalAlign=middle;whiteSpace=wrap;rounded=0;" parent="1" vertex="1">
          <mxGeometry x="7443" y="220" width="60" height="30" as="geometry" />
        </mxCell>
        <mxCell id="aoiIvWKllZCUMls8HDCo-267" value="GOHAN&lt;br&gt;KRILIN&lt;div&gt;BULMA&lt;br&gt;DENDE&lt;br&gt;PICCOLO&lt;br&gt;VEGETA&lt;/div&gt;" style="rounded=0;whiteSpace=wrap;html=1;" parent="1" vertex="1">
          <mxGeometry x="7340" y="-70" width="120" height="100" as="geometry" />
        </mxCell>
        <mxCell id="aoiIvWKllZCUMls8HDCo-276" value="" style="edgeStyle=orthogonalEdgeStyle;rounded=0;orthogonalLoop=1;jettySize=auto;html=1;" parent="1" source="aoiIvWKllZCUMls8HDCo-268" target="aoiIvWKllZCUMls8HDCo-274" edge="1">
          <mxGeometry relative="1" as="geometry" />
        </mxCell>
        <mxCell id="aoiIvWKllZCUMls8HDCo-268" value="37" style="rounded=0;whiteSpace=wrap;html=1;" parent="1" vertex="1">
          <mxGeometry x="7570" y="50" width="50" height="460" as="geometry" />
        </mxCell>
        <mxCell id="aoiIvWKllZCUMls8HDCo-271" value="GOKÃ" style="shape=umlActor;verticalLabelPosition=bottom;verticalAlign=top;html=1;outlineConnect=0;" parent="1" vertex="1">
          <mxGeometry x="7650" y="102.5" width="30" height="60" as="geometry" />
        </mxCell>
        <mxCell id="aoiIvWKllZCUMls8HDCo-272" value="GOKÃ" style="shape=parallelogram;perimeter=parallelogramPerimeter;whiteSpace=wrap;html=1;fixedSize=1;" parent="1" vertex="1">
          <mxGeometry x="7670" y="-40" width="120" height="60" as="geometry" />
        </mxCell>
        <mxCell id="aoiIvWKllZCUMls8HDCo-281" value="" style="edgeStyle=orthogonalEdgeStyle;rounded=0;orthogonalLoop=1;jettySize=auto;html=1;" parent="1" source="aoiIvWKllZCUMls8HDCo-273" target="aoiIvWKllZCUMls8HDCo-279" edge="1">
          <mxGeometry relative="1" as="geometry" />
        </mxCell>
        <mxCell id="aoiIvWKllZCUMls8HDCo-273" value="38" style="rounded=0;whiteSpace=wrap;html=1;" parent="1" vertex="1">
          <mxGeometry x="7780" y="47.5" width="50" height="460" as="geometry" />
        </mxCell>
        <mxCell id="aoiIvWKllZCUMls8HDCo-277" value="" style="edgeStyle=orthogonalEdgeStyle;rounded=0;orthogonalLoop=1;jettySize=auto;html=1;" parent="1" source="aoiIvWKllZCUMls8HDCo-274" target="aoiIvWKllZCUMls8HDCo-273" edge="1">
          <mxGeometry relative="1" as="geometry" />
        </mxCell>
        <mxCell id="aoiIvWKllZCUMls8HDCo-274" value="" style="ellipse;whiteSpace=wrap;html=1;aspect=fixed;" parent="1" vertex="1">
          <mxGeometry x="7670" y="245" width="50" height="50" as="geometry" />
        </mxCell>
        <mxCell id="aoiIvWKllZCUMls8HDCo-275" value="FREEZER" style="text;html=1;align=center;verticalAlign=middle;whiteSpace=wrap;rounded=0;" parent="1" vertex="1">
          <mxGeometry x="7645" y="200" width="100" height="30" as="geometry" />
        </mxCell>
        <mxCell id="aoiIvWKllZCUMls8HDCo-278" value="GOKÃ EVOLUCIONADO" style="shape=umlActor;verticalLabelPosition=bottom;verticalAlign=top;html=1;outlineConnect=0;" parent="1" vertex="1">
          <mxGeometry x="7870" y="75" width="30" height="60" as="geometry" />
        </mxCell>
        <mxCell id="aoiIvWKllZCUMls8HDCo-282" value="" style="edgeStyle=orthogonalEdgeStyle;rounded=0;orthogonalLoop=1;jettySize=auto;html=1;" parent="1" source="aoiIvWKllZCUMls8HDCo-279" target="aoiIvWKllZCUMls8HDCo-280" edge="1">
          <mxGeometry relative="1" as="geometry" />
        </mxCell>
        <mxCell id="aoiIvWKllZCUMls8HDCo-279" value="" style="ellipse;whiteSpace=wrap;html=1;aspect=fixed;" parent="1" vertex="1">
          <mxGeometry x="7870" y="235" width="50" height="50" as="geometry" />
        </mxCell>
        <mxCell id="aoiIvWKllZCUMls8HDCo-291" value="" style="edgeStyle=orthogonalEdgeStyle;rounded=0;orthogonalLoop=1;jettySize=auto;html=1;" parent="1" source="aoiIvWKllZCUMls8HDCo-280" target="aoiIvWKllZCUMls8HDCo-289" edge="1">
          <mxGeometry relative="1" as="geometry" />
        </mxCell>
        <mxCell id="aoiIvWKllZCUMls8HDCo-280" value="39" style="rounded=0;whiteSpace=wrap;html=1;" parent="1" vertex="1">
          <mxGeometry x="7990" y="50" width="50" height="460" as="geometry" />
        </mxCell>
        <mxCell id="aoiIvWKllZCUMls8HDCo-286" value="41" style="rounded=0;whiteSpace=wrap;html=1;" parent="1" vertex="1">
          <mxGeometry x="8220" y="165" width="50" height="70" as="geometry" />
        </mxCell>
        <mxCell id="aoiIvWKllZCUMls8HDCo-292" style="edgeStyle=orthogonalEdgeStyle;rounded=0;orthogonalLoop=1;jettySize=auto;html=1;exitX=0.063;exitY=0.938;exitDx=0;exitDy=0;exitPerimeter=0;" parent="1" source="aoiIvWKllZCUMls8HDCo-289" target="aoiIvWKllZCUMls8HDCo-286" edge="1">
          <mxGeometry relative="1" as="geometry" />
        </mxCell>
        <mxCell id="aoiIvWKllZCUMls8HDCo-296" style="edgeStyle=orthogonalEdgeStyle;rounded=0;orthogonalLoop=1;jettySize=auto;html=1;entryX=0;entryY=0.75;entryDx=0;entryDy=0;exitX=-0.021;exitY=-0.031;exitDx=0;exitDy=0;exitPerimeter=0;" parent="1" source="aoiIvWKllZCUMls8HDCo-289" target="aoiIvWKllZCUMls8HDCo-293" edge="1">
          <mxGeometry relative="1" as="geometry" />
        </mxCell>
        <mxCell id="aoiIvWKllZCUMls8HDCo-289" value="" style="triangle;whiteSpace=wrap;html=1;rotation=-180;" parent="1" vertex="1">
          <mxGeometry x="8070" y="230" width="60" height="80" as="geometry" />
        </mxCell>
        <mxCell id="aoiIvWKllZCUMls8HDCo-293" value="40" style="rounded=0;whiteSpace=wrap;html=1;" parent="1" vertex="1">
          <mxGeometry x="8220" y="285" width="50" height="70" as="geometry" />
        </mxCell>
        <mxCell id="aoiIvWKllZCUMls8HDCo-309" value="ACERTIJO" style="text;html=1;align=center;verticalAlign=middle;whiteSpace=wrap;rounded=0;" parent="1" vertex="1">
          <mxGeometry x="1270" y="240" width="60" height="30" as="geometry" />
        </mxCell>
        <mxCell id="aoiIvWKllZCUMls8HDCo-312" value="PIEDAD&lt;br&gt;A&lt;br&gt;VEGETA?" style="text;html=1;align=center;verticalAlign=middle;whiteSpace=wrap;rounded=0;" parent="1" vertex="1">
          <mxGeometry x="6570" y="200" width="60" height="30" as="geometry" />
        </mxCell>
        <mxCell id="aoiIvWKllZCUMls8HDCo-313" value="PIEDAD&amp;nbsp;&lt;br&gt;A&lt;br&gt;FREEZER?" style="text;html=1;align=center;verticalAlign=middle;whiteSpace=wrap;rounded=0;" parent="1" vertex="1">
          <mxGeometry x="8070" y="180" width="60" height="30" as="geometry" />
        </mxCell>
        <mxCell id="aoiIvWKllZCUMls8HDCo-318" value="43" style="rounded=0;whiteSpace=wrap;html=1;" parent="1" vertex="1">
          <mxGeometry x="8391.08" y="-7.5" width="50" height="250" as="geometry" />
        </mxCell>
        <mxCell id="aoiIvWKllZCUMls8HDCo-326" style="edgeStyle=orthogonalEdgeStyle;rounded=0;orthogonalLoop=1;jettySize=auto;html=1;exitX=0.997;exitY=0.865;exitDx=0;exitDy=0;exitPerimeter=0;" edge="1" parent="1" target="aoiIvWKllZCUMls8HDCo-323">
          <mxGeometry relative="1" as="geometry">
            <mxPoint x="8270" y="310.0250000000001" as="sourcePoint" />
          </mxGeometry>
        </mxCell>
        <mxCell id="aoiIvWKllZCUMls8HDCo-323" value="44" style="rounded=0;whiteSpace=wrap;html=1;" parent="1" vertex="1">
          <mxGeometry x="8391.08" y="272.5" width="50" height="250" as="geometry" />
        </mxCell>
        <mxCell id="aoiIvWKllZCUMls8HDCo-325" style="edgeStyle=orthogonalEdgeStyle;rounded=0;orthogonalLoop=1;jettySize=auto;html=1;entryX=0.1;entryY=0.665;entryDx=0;entryDy=0;entryPerimeter=0;exitX=1;exitY=0.25;exitDx=0;exitDy=0;" edge="1" parent="1" target="aoiIvWKllZCUMls8HDCo-318">
          <mxGeometry relative="1" as="geometry">
            <mxPoint x="8271.08" y="196.25" as="sourcePoint" />
          </mxGeometry>
        </mxCell>
      </root>
    </mxGraphModel>
  </diagram>
</mxfile>
